<svg width="92" height="80" viewBox="0 0 92 80" fill="none" xmlns="http://www.w3.org/2000/svg">
<path d="M2.27275 0C1.66998 0 1.0919 0.23945 0.665673 0.665673C0.23945 1.0919 0 1.66998 0 2.27275V66.8189C0 67.4216 0.23945 67.9997 0.665673 68.426C1.0919 68.8522 1.66998 69.0916 2.27275 69.0916H63.0734C62.2788 68.0462 61.4861 66.9998 60.6879 65.9552C59.6952 64.4907 58.2533 63.237 57.8306 61.457C51.9851 63.8698 45.2687 64.0934 39.2704 62.0906C39.1386 62.0479 39.0095 61.9952 38.8786 61.9506C38.1904 62.6234 37.4486 63.7961 37.3313 64.5461H28.6885C29.3376 62.347 27.9594 58.9133 29.263 56.6751C29.3667 56.6479 29.4921 56.4724 29.5494 56.2915C29.4021 56.1533 29.253 56.0188 29.1094 55.8778C27.8312 56.2669 27.3203 57.2297 26.6094 58.0742C26.9976 59.9143 24.1957 59.4788 24.4784 61.3561C26.4303 62.8697 22.6766 61.7161 21.5602 61.837C20.3757 61.8497 16.9102 60.6097 18.1129 63.1461C17.9247 63.8425 18.0984 64.2698 18.4447 64.5461H17.9138C17.8311 63.7498 16.3311 63.6316 15.7529 63.2407C14.7792 63.0043 13.6165 62.8861 12.6083 62.437C12.3492 63.157 10.011 63.9807 9.49919 64.5461H4.5455V31.3358C5.24278 31.8031 6.80643 31.6176 4.6755 30.6085H4.5455V20.1411C4.95914 19.932 5.2546 19.8657 5.23642 20.2157C6.26097 19.8702 6.70734 17.3765 8.48009 18.3975C9.58555 18.5602 11.4147 20.2738 10.4956 20.4884C11.2119 22.2375 11.7201 21.1111 12.5992 23.1957C11.9974 26.0466 14.302 28.1594 15.5665 29.9767C17.0811 30.6058 17.6802 32.564 20.142 32.6403C20.4766 32.9331 20.9057 33.1985 21.3529 33.4531C21.4757 32.5131 21.6493 31.5803 21.8684 30.6585C21.8093 30.6449 21.752 30.6367 21.6884 30.6158C19.3202 32.8003 18.8347 29.0185 21.1475 28.8703C21.302 28.8603 21.4684 28.8685 21.6475 28.893C21.9157 28.8612 22.1384 28.893 22.3266 28.9594C23.086 26.4695 24.2114 24.1064 25.6657 21.9475C26.4467 20.7821 27.3234 19.6837 28.2867 18.6638C27.8085 17.8638 27.3194 17.4175 26.7421 18.462C26.6985 16.912 22.5075 15.2874 25.5912 16.7747C27.2085 18.1684 27.7385 16.5329 27.9939 15.4165C29.3803 13.9711 26.573 13.4774 27.0848 12.5329C26.2339 11.2574 24.9739 9.95101 23.6793 9.161C21.1684 9.45192 20.2884 8.92191 23.6457 8.92009C23.9484 7.35189 24.4512 6.24097 24.7975 4.92096C24.4339 4.81641 24.0539 4.83278 23.6793 4.83187C22.073 4.61641 21.1193 5.23733 21.152 6.4637C19.9457 6.36734 21.0293 4.31095 19.1693 4.93914C16.3493 4.8946 19.7584 5.84733 19.4966 5.98461C19.1738 6.70825 17.142 6.25734 17.3811 6.99098C16.4502 5.26915 16.0265 7.8119 15.302 6.07006C14.8656 5.65188 17.1293 6.4828 16.6138 4.95823C15.4738 4.52187 15.0656 5.28551 14.1774 5.59733C11.5265 7.06462 14.6402 8.44463 15.9865 8.93373C18.0156 8.39281 18.0138 7.70917 19.4247 8.461C21.0066 9.33828 17.8275 8.72191 17.9247 10.0719C17.7429 9.23282 17.5156 8.72645 16.5338 9.80192C15.2247 10.0383 14.6402 8.23918 13.6629 8.36554C11.4356 8.06281 12.2674 13.072 14.102 11.3665C15.212 13.2874 12.6838 11.8701 11.9338 11.6556C10.2401 13.5474 8.41554 11.6065 6.3937 11.5283C5.74642 11.0974 5.11187 11.0919 4.5455 11.311V4.5455H28.3848C26.6848 4.59187 25.1666 4.81641 25.7848 6.03915C25.6848 8.39736 28.7358 6.52461 29.1748 8.65736C30.4421 10.1474 28.4212 13.3156 30.613 12.7592C29.8067 13.7401 29.9076 15.3029 30.5367 16.5347C32.8639 14.5815 35.5032 13.0338 38.344 11.9565C38.394 11.6765 38.3549 11.3547 38.1877 10.9747C37.9031 9.54828 39.2268 9.09282 38.7631 7.51099C39.3868 6.32007 38.9031 5.06005 37.834 4.5455H87.2736V10.9801C87.1326 10.9197 86.9878 10.8687 86.84 10.8274C85.5591 11.9883 86.5945 12.0983 87.2736 11.8374V12.852C85.7591 12.0001 84.0954 11.9065 82.4799 12.261C81.7463 10.9856 79.149 11.0156 78.2944 9.86738C76.789 8.06372 78.7535 8.60191 80.0672 8.46282C79.6945 7.33553 77.4581 6.80098 76.5135 6.98735C74.8071 7.9219 77.4099 8.76009 77.1472 10.0147C77.1472 10.9265 76.0353 10.9328 75.0653 10.8828C75.4571 9.91738 73.208 8.73009 72.3162 9.51555C70.628 9.00464 69.9844 9.30464 71.098 7.54644C70.7089 6.19461 69.1007 6.16915 68.3798 5.23096C67.4589 7.18371 65.9234 6.59189 64.2779 7.78099C63.6188 8.74464 62.2461 9.6101 62.1779 10.2465C61.1579 10.7256 60.137 8.28099 59.4215 10.4465C58.7724 12.2792 59.4579 13.1674 57.2679 11.6674C55.0015 9.25191 61.8206 7.1828 59.2861 6.15461C57.1824 6.76825 55.9179 8.25099 55.4997 10.3574C55.2733 10.8365 55.376 11.1701 55.6151 11.4401C63.6007 13.822 70.2089 20.2438 72.8953 28.1221C72.9371 27.6476 73.0162 27.1912 73.1753 26.8576C73.8471 26.3448 73.3144 28.8258 74.7026 27.4148C73.6799 29.6103 77.2735 27.7057 77.7599 26.7994C77.0472 25.0103 80.3236 24.1675 80.2472 23.8302C79.0408 22.5648 79.7263 23.8239 78.3954 24.1139C77.9544 23.5266 79.2408 20.3066 77.529 20.602C74.9726 19.9438 79.7036 18.0611 80.9808 18.7538C81.5627 16.6011 82.399 18.3156 80.9617 19.3057C80.4145 21.2157 80.6763 23.8212 82.2863 21.2684C83.01 20.5639 82.83 18.7275 83.7718 18.4075C85.0372 17.8111 87.2954 17.3447 87.2364 15.5011C87.2491 15.4974 87.2609 15.4983 87.2736 15.4956V64.5461H83.6745C84.4545 63.4661 85.4863 61.6188 84.3936 60.9488C82.7472 60.6643 81.5172 58.6788 79.5272 58.7615C78.629 57.727 76.5608 57.2033 76.0044 57.0015C75.4481 56.7997 74.4826 57.9661 73.4935 57.4506C73.1958 57.4025 72.8919 57.4081 72.5962 57.467C75.5726 61.3306 78.5208 65.2152 81.4799 69.0916H89.5464C90.1492 69.0916 90.7272 68.8522 91.1535 68.426C91.5797 67.9997 91.8191 67.4216 91.8191 66.8189V2.27275C91.8191 1.66998 91.5797 1.0919 91.1535 0.665673C90.7272 0.23945 90.1492 0 89.5464 0H2.27275ZM46.5368 4.83641C45.0732 5.55733 47.6687 8.42736 47.7405 5.68733C48.0087 6.08734 49.8078 6.49098 49.2196 5.20096C47.9123 4.43096 48.1105 5.31642 46.5359 4.83732M67.5189 4.83914C65.9398 5.60824 68.9007 5.62279 67.5189 4.83914V4.83914ZM17.3547 5.10005C16.1729 5.97824 19.0893 6.84734 17.5093 5.14642L17.3547 5.10005ZM27.0321 5.62097C26.7403 5.8037 27.3276 5.90461 27.0321 5.62097V5.62097ZM15.6183 6.74371C15.5456 6.75552 15.7574 6.90462 15.6183 6.74371V6.74371ZM19.6666 7.11826C19.5575 7.70008 21.0911 7.36553 19.6666 7.11826V7.11826ZM21.662 7.28189C22.1593 7.61826 23.0166 7.19553 21.662 7.28189V7.28189ZM17.6847 7.34189C17.572 7.75008 18.5656 7.4328 17.6847 7.34189V7.34189ZM20.5048 8.62191C20.0666 8.89918 21.3957 8.82736 20.5048 8.62191V8.62191ZM21.1329 10.0392C20.5966 11.7501 23.0393 14.0665 21.1439 12.1165C20.6229 11.3365 20.352 10.5892 21.1329 10.0392ZM17.9529 10.2119C18.7338 11.5165 19.9229 11.8647 18.9275 12.3138C18.2666 11.9938 18.1138 10.9974 17.9529 10.2119ZM30.2067 11.5265C29.9103 11.5447 30.3167 11.6001 30.2067 11.5265V11.5265ZM11.7738 11.9383C11.6328 11.9447 11.6719 12.351 11.7738 11.9383V11.9383ZM18.8138 12.6056C18.3984 12.5901 18.7502 13.4656 18.8138 12.6056V12.6056ZM24.0393 12.611C23.6993 14.2929 25.0484 14.1856 24.9575 14.3547C23.843 14.8456 24.1093 16.8674 23.2566 15.3247C22.7184 15.0738 23.533 12.8538 23.8993 12.6592L24.0393 12.611ZM18.5602 12.6129C18.552 13.0065 18.6793 12.6401 18.5602 12.6129V12.6129ZM84.3209 12.7638C84.1627 12.9183 84.3572 12.8256 84.3209 12.7638V12.7638ZM18.6256 12.9838C17.7947 13.5747 19.2457 13.6329 18.6256 12.9838V12.9838ZM47.515 13.8774C42.5576 13.9119 37.7457 15.5563 33.804 18.5629C23.7221 26.2403 21.7602 40.7132 29.4376 50.7951C36.624 60.2324 49.7469 62.5088 59.6652 56.466L61.5597 58.9542C61.187 59.8215 61.2215 60.6506 61.6552 61.2215L75.4008 79.2717C76.219 80.3454 78.1945 80.2172 79.8126 78.9845C81.4308 77.7526 82.079 75.8826 81.2618 74.8081L67.5162 56.7579C67.0816 56.1869 66.2916 55.9324 65.3561 56.0615L63.4616 53.5742C71.9244 45.6196 73.2217 32.3649 66.0361 22.9275C62.197 17.8866 56.6588 14.8774 50.8205 14.0865C49.7251 13.9382 48.6204 13.8683 47.515 13.8774ZM21.7066 16.1574C22.2748 17.5065 24.4693 16.7147 23.6102 18.5538C24.5666 19.4538 23.4584 22.6266 23.0866 19.9229C20.7066 19.9111 19.5702 17.5365 21.5684 16.2902L21.7066 16.1574ZM23.7802 16.3811C22.6348 16.7256 24.5075 16.9993 23.7802 16.3811V16.3811ZM80.8972 18.0429C80.9608 17.9975 81.119 18.3238 80.8972 18.0429V18.0429ZM48.4305 18.9711C51.0687 19.0717 53.6517 19.7567 55.993 20.9766C58.3344 22.1966 60.3757 23.9211 61.9697 26.0257C63.3978 27.8928 64.443 30.0235 65.0455 32.2955C65.6479 34.5676 65.7957 36.9363 65.4803 39.2656C65.1648 41.5949 64.3925 43.839 63.2075 45.869C62.0226 47.899 60.4483 49.675 58.5752 51.0951C56.7081 52.5233 54.5773 53.5686 52.3052 54.1712C50.033 54.7737 47.6642 54.9215 45.3348 54.606C43.0054 54.2906 40.7612 53.5182 38.7311 52.3332C36.701 51.1481 34.9249 49.5738 33.5049 47.7005C32.0769 45.8334 31.0317 43.7027 30.4293 41.4306C29.827 39.1585 29.6793 36.7898 29.9948 34.4604C30.3103 32.1311 31.0827 29.8871 32.2678 27.8571C33.4528 25.8271 35.0272 24.0511 36.9004 22.6311C40.1998 20.1048 44.278 18.8102 48.4305 18.9711ZM83.5109 19.9075C82.0836 21.0884 85.2245 20.872 83.5109 19.9075V19.9075ZM85.2109 20.8911C83.6309 21.663 86.5918 21.6639 85.2109 20.8911V20.8911ZM86.24 21.2511C84.8309 22.4239 87.6764 21.8075 86.24 21.2511V21.2511ZM86.1836 21.5057C86.1354 21.5884 86.2618 21.5048 86.1836 21.5057V21.5057ZM86.3182 21.652C86.2045 21.6666 86.3609 21.7211 86.3182 21.652V21.652ZM47.8278 22.6002C45.8405 22.5648 43.8786 23.0093 42.0695 23.8075C42.1641 23.923 42.2995 24.0339 42.4977 24.1339C40.6795 23.543 40.1504 25.8403 40.9159 26.8739L42.1459 26.9748L43.1741 26.5221C43.8386 25.8312 44.0041 25.9503 44.2186 24.9039L44.6196 24.9557L44.9377 24.823L45.6623 25.1812C46.5314 25.5212 46.5723 26.2539 46.2814 26.4685C45.8696 26.7221 46.355 26.7594 46.395 26.9166C46.6005 26.8576 46.7205 26.6803 46.8496 26.5857L47.0823 26.5021C47.9314 25.9448 47.3387 25.7612 46.7487 25.0093L47.0614 25.0894C47.5187 25.6075 47.7878 26.1939 48.0587 26.8166C48.0896 26.8412 48.1178 26.873 48.1532 26.8839C48.3587 26.9521 48.6487 26.9294 48.8969 26.8612C49.1423 26.7939 49.1587 26.3257 49.1169 25.8775C49.4669 27.4739 52.8996 26.9994 50.8569 27.973C49.6796 27.9994 47.8087 27.3539 47.4641 28.1694C46.7023 27.8239 46.3132 27.5976 46.1587 27.4203C45.6896 27.2439 44.3396 26.733 44.2914 26.733C44.2341 26.733 42.5159 27.0457 42.5159 27.0457L41.0977 27.5839C40.6368 29.0694 39.9095 28.2748 39.6622 29.4267C39.4686 30.163 37.8022 31.754 38.6749 33.0067C39.454 36.6304 43.9714 34.2176 45.0241 35.9576C44.5296 37.0295 46.9759 39.0686 45.6068 40.8241C46.2523 43.3741 47.9869 47.6369 50.7778 44.0077C51.5142 41.835 53.0996 40.6604 53.0433 38.5049C52.2005 36.3822 57.1615 34.8085 55.1769 33.0894C54.7015 33.1458 54.6469 33.2485 54.2697 33.374C53.4769 33.344 53.2724 32.7049 53.0024 32.3031C52.7962 32.0099 52.6138 31.7007 52.4569 31.3785C52.9615 32.1603 53.4824 32.824 54.2133 33.2322C55.4778 32.9485 56.9279 32.0131 57.5179 31.3267C57.5033 28.6512 61.0997 31.4267 61.027 33.4376C61.2497 33.9794 61.5325 34.3558 61.8161 34.5758C61.6145 33.2897 61.2306 32.039 60.6761 30.8612C59.6679 28.6485 58.0533 26.7485 56.0915 25.3266C56.0551 25.383 55.9642 25.3866 55.9824 25.2503C55.7171 25.0624 55.4457 24.8832 55.1688 24.713C55.1988 24.8393 55.2351 24.9675 55.2769 25.0975C55.1578 24.9203 55.0324 24.7403 54.9288 24.5666C52.7869 23.3048 50.3305 22.5811 47.8287 22.5993L47.8278 22.6002ZM77.4072 22.7202C78.0663 24.5984 75.1144 28.9512 74.6853 26.0939C74.9881 24.6812 77.4108 24.8939 77.4072 22.7202ZM22.0657 23.2166C22.0448 23.2848 22.1984 23.2011 22.0657 23.2166V23.2166ZM23.4666 23.8775C23.1466 24.043 23.7312 24.0975 23.4666 23.8775V23.8775ZM50.7651 23.9375C51.4987 24.5557 53.7496 25.3739 51.3669 24.7212C50.1269 25.2875 49.7432 24.9248 50.7651 23.9375ZM45.0941 25.0375C44.9341 25.0866 45.0696 25.4184 44.9696 25.523C45.6514 25.8566 45.2696 25.2075 45.3705 25.1012C45.2323 25.0357 45.1468 25.0203 45.0941 25.0375ZM55.4879 25.7148C55.6988 26.263 55.8388 26.613 55.2969 25.933C55.3417 25.9112 55.3817 25.8807 55.4145 25.8432C55.4473 25.8058 55.4722 25.7621 55.4879 25.7148ZM45.1577 25.783C44.8905 25.7539 44.7486 25.933 44.7477 26.183C45.4523 26.5657 45.3796 25.9339 45.4659 25.8857C45.3701 25.8328 45.2662 25.798 45.1577 25.783ZM56.0424 29.6767C56.4442 29.693 55.6578 30.2585 55.7924 29.7085C55.9042 29.6839 55.9851 29.6739 56.0424 29.6767ZM83.7345 33.2331C82.4254 34.624 85.2945 34.8685 83.7345 33.2331V33.2331ZM83.6436 33.4494C83.6191 33.5422 83.7781 33.4349 83.6436 33.4494V33.4494ZM83.7563 33.6485C83.62 33.6258 83.7691 33.7422 83.7563 33.6485V33.6485ZM84.7082 33.8304C83.44 34.934 86.2391 34.5322 84.7082 33.8304V33.8304ZM84.8445 34.144C84.8263 34.2776 84.9409 34.1276 84.8445 34.144V34.144ZM84.6654 34.1922C84.5918 34.2558 84.7491 34.3049 84.6654 34.1922V34.1922ZM74.3044 35.6213C74.3271 36.1886 74.3317 36.7549 74.319 37.3213C75.3617 37.4877 76.6681 37.4404 76.6926 38.594C78.5617 38.6749 76.4999 41.405 76.4317 38.8777C75.6702 38.768 74.8936 38.8996 74.2108 39.254C74.0211 41.2378 73.6151 43.195 72.9999 45.0905C74.5271 44.6059 76.0853 44.6532 77.0053 46.1378C79.4281 46.1287 77.3672 47.7805 79.0845 48.1178C79.8163 46.6232 78.699 46.8114 80.0717 45.5932C81.4036 43.8905 80.5317 41.6913 79.2036 40.7613C78.9272 39.7086 77.8263 39.1395 78.3445 38.4213C79.3536 39.7895 80.7836 38.7649 79.5899 38.0249C80.4708 37.2022 83.6181 40.145 81.8509 37.8813C80.9781 37.7195 79.779 35.9149 79.5072 37.0767C79.429 38.0404 77.0244 35.614 76.1372 36.6067C75.8808 35.7122 74.6262 36.2522 74.5553 36.6513C74.9408 36.0513 74.6981 35.7413 74.3044 35.6213ZM78.9299 36.3986C77.6272 37.1386 80.1063 37.1131 78.9299 36.3986V36.3986ZM44.8977 36.4622C44.8677 36.5013 45.0023 36.6986 44.8977 36.4622V36.4622ZM33.4858 36.5731C33.4588 37.8355 33.5991 39.0958 33.9031 40.3213C34.9485 38.7377 34.9076 37.2504 33.4858 36.5731ZM78.8626 36.6167C78.7663 36.6386 78.9408 36.6731 78.8626 36.6167V36.6167ZM79.7436 36.7258C79.3181 37.0258 80.1681 37.0258 79.7436 36.7258V36.7258ZM79.7436 36.7349C79.3563 37.0131 80.1299 37.0131 79.7436 36.7349V36.7349ZM78.9499 36.814C78.8154 36.7977 78.9645 36.9058 78.9499 36.814V36.814ZM74.3117 37.8013C74.3026 38.0195 74.2835 38.2377 74.269 38.4559C74.5626 38.1249 74.6899 37.7831 74.3117 37.8013ZM53.5915 38.7431C52.5405 39.3204 54.716 39.584 53.8069 38.9068L53.7678 38.8095L53.5915 38.7431ZM54.8206 38.9049C53.7824 39.554 52.1715 42.6486 54.4051 42.7459C54.9433 42.1059 56.3079 39.2522 54.8206 38.9049ZM82.9809 40.8759C82.149 42.5168 85.3963 41.8604 82.9809 40.8759V40.8759ZM56.4842 41.0941C55.1333 42.0004 57.7942 41.8859 56.4842 41.0941V41.0941ZM85.1491 44.8359C85.9182 46.5768 83.3672 47.6196 83.56 49.236C84.8691 49.8669 85.5445 47.4923 86.4664 46.7659C87.5564 45.8132 85.6082 45.5314 85.1491 44.8359ZM24.6866 50.1905C24.8357 51.1487 25.2848 52.076 26.0866 52.3587C25.5853 51.659 25.1181 50.9354 24.6866 50.1905Z" fill="#72C4FF"/>
</svg>
